<?xml version="1.0" standalone="no"?>
<!DOCTYPE svg PUBLIC "-//W3C//DTD SVG 20010904//EN"
 "http://www.w3.org/TR/2001/REC-SVG-20010904/DTD/svg10.dtd">
<svg version="1.0" xmlns="http://www.w3.org/2000/svg"
 width="598.000000pt" height="600.000000pt" viewBox="0 0 598.000000 600.000000"
 preserveAspectRatio="xMidYMid meet">
<metadata>
Created by potrace 1.15, written by Peter Selinger 2001-2017
</metadata>
<g transform="translate(0.000000,600.000000) scale(0.100000,-0.100000)"
fill="#000000" stroke="none">
<path d="M2835 5680 c-196 -13 -355 -39 -572 -95 -179 -47 -320 -102 -491
-190 -478 -249 -838 -590 -1097 -1040 -107 -184 -248 -518 -288 -680 -101
-404 -97 -902 13 -1334 191 -756 614 -1294 1344 -1712 308 -176 591 -264 964
-300 154 -15 552 -6 692 16 497 77 899 251 1260 544 94 76 343 332 420 431
307 397 494 835 565 1322 22 151 30 440 16 583 -44 437 -215 910 -466 1290
-400 607 -980 999 -1660 1124 -212 39 -487 55 -700 41z m590 -159 c425 -73
800 -242 1134 -511 169 -136 447 -435 556 -595 143 -213 304 -647 365 -988
123 -682 -59 -1431 -486 -1997 -437 -580 -1145 -938 -1909 -967 -624 -23
-1252 190 -1725 585 -177 147 -350 345 -485 552 -215 330 -325 621 -386 1020
-31 195 -33 574 -6 750 55 353 205 748 394 1040 236 362 590 665 1038 885 268
133 520 208 800 240 178 21 554 13 710 -14z"/>
<path d="M2805 5433 c-22 -2 -99 -12 -171 -23 -458 -71 -848 -258 -1225 -586
-248 -216 -430 -453 -575 -749 -179 -366 -249 -672 -248 -1080 1 -397 78 -731
248 -1080 287 -585 804 -1029 1437 -1234 254 -82 466 -115 744 -114 428 1 813
103 1175 311 251 144 511 368 694 597 130 163 174 235 250 413 30 71 71 165
91 208 76 162 133 370 166 604 7 47 13 187 13 315 -1 186 -5 257 -22 370 -79
511 -294 946 -647 1314 -343 357 -728 566 -1257 685 -206 46 -476 66 -673 49z
m125 -291 c4 -117 7 -135 24 -148 21 -15 64 -18 82 -6 26 17 34 56 34 172 0
107 2 121 16 116 9 -3 34 -6 56 -6 l40 0 -4 -137 c-5 -157 -15 -187 -75 -224
-49 -31 -153 -33 -203 -4 -68 41 -75 60 -78 226 l-3 150 53 -3 53 -3 5 -133z
m720 30 c169 -53 166 -50 140 -118 -9 -22 -9 -22 -59 -6 -28 8 -53 13 -57 10
-3 -4 -23 -64 -45 -134 -22 -70 -41 -130 -44 -132 -5 -5 -77 18 -88 28 -7 6
44 199 70 266 3 8 -15 18 -52 29 -46 13 -56 19 -50 33 3 9 9 29 12 45 3 15 8
27 12 27 3 0 76 -22 161 -48z m-1131 -160 c78 -90 117 -144 109 -147 -100 -36
-95 -36 -120 -4 l-23 30 -70 -24 c-68 -23 -70 -25 -73 -60 -3 -33 -7 -37 -53
-52 -28 -10 -52 -15 -54 -14 -3 5 32 410 37 414 2 1 23 9 48 17 53 18 31 36
199 -160z m1631 -48 l39 -26 -40 -60 c-23 -33 -39 -61 -37 -62 29 -23 99 -66
106 -66 5 0 26 25 46 55 l37 56 27 -16 c71 -42 74 -27 -44 -204 l-107 -160
-44 30 -44 31 17 26 c9 15 28 42 40 61 l23 35 -56 37 -57 38 -34 -52 c-19 -29
-38 -56 -42 -60 -7 -8 -90 39 -90 52 0 12 203 311 212 311 4 0 26 -12 48 -26z
m-2225 -102 c109 -77 115 -229 11 -319 -102 -90 -256 -60 -312 60 -39 85 -27
154 39 224 75 79 180 93 262 35z m1101 -170 c-3 -5 37 -50 87 -100 l92 -92 75
75 c41 41 79 75 85 75 5 0 -26 -36 -70 -80 l-80 -80 93 -92 92 -93 90 90 90
90 -72 72 c-90 90 -71 97 21 8 l67 -65 29 30 c16 17 33 30 39 30 5 0 -5 -16
-24 -35 l-34 -35 92 -93 92 -92 65 65 c36 35 65 60 65 54 0 -5 -27 -36 -60
-69 l-60 -59 92 -93 93 -93 65 65 c36 36 70 65 75 65 5 0 -22 -32 -60 -70
l-70 -70 93 -92 92 -93 70 70 c38 38 70 65 70 60 0 -5 -29 -39 -65 -75 l-65
-65 93 -93 93 -92 44 45 c24 25 49 45 54 45 6 0 -12 -23 -39 -50 l-49 -50 89
-90 c71 -71 94 -89 110 -84 17 6 18 5 7 -9 -9 -10 -10 -17 -2 -22 5 -3 17 -21
26 -38 l16 -32 -34 32 -34 33 -89 -90 -90 -90 92 -92 93 -93 50 50 c27 27 50
45 50 39 0 -5 -20 -30 -45 -54 l-45 -44 50 -51 c27 -28 50 -57 50 -65 0 -8
-26 11 -58 43 l-57 57 -90 -90 -90 -90 92 -92 93 -93 50 50 c27 27 50 45 50
40 0 -5 -20 -30 -45 -55 l-45 -46 30 -29 c16 -16 30 -36 30 -44 0 -10 -14 -2
-38 22 l-38 37 -87 -88 c-48 -48 -87 -92 -87 -97 0 -6 34 -44 75 -85 41 -41
75 -79 75 -85 0 -5 -38 29 -85 75 l-85 85 -93 -93 -92 -92 92 -92 93 -93 65
65 c80 79 86 71 8 -11 -50 -53 -56 -62 -45 -79 18 -29 14 -35 -8 -15 -21 19
-22 18 -113 -73 l-91 -92 34 -35 c19 -19 29 -35 24 -35 -6 0 -21 11 -34 25
-13 14 -28 25 -34 25 -14 0 -176 -162 -176 -176 0 -6 11 -21 25 -34 14 -13 23
-26 20 -28 -3 -3 -19 7 -35 23 l-30 29 -90 -89 c-65 -65 -88 -94 -84 -107 4
-13 1 -16 -10 -12 -10 4 -31 -7 -56 -30 -56 -51 -63 -45 -10 9 l45 45 -93 93
-92 92 -92 -92 -93 -93 75 -75 c41 -41 70 -75 64 -75 -5 0 -39 29 -74 65 -35
36 -69 65 -75 65 -6 0 -48 -38 -94 -84 -60 -60 -82 -89 -77 -101 4 -13 2 -15
-13 -10 -11 3 -22 1 -26 -5 -3 -5 -11 -10 -17 -10 -6 0 -4 8 5 18 15 17 11 23
-71 105 -48 48 -92 87 -97 87 -6 0 -49 -38 -95 -85 -76 -77 -84 -87 -72 -105
13 -22 3 -27 -16 -8 -9 9 -15 9 -24 0 -19 -19 -33 -14 -15 6 15 17 11 23 -71
105 -48 48 -92 87 -97 87 -6 0 -40 -29 -75 -65 -35 -36 -69 -65 -74 -65 -6 0
23 34 64 75 l75 75 -93 93 -92 92 -92 -92 -93 -93 55 -55 c66 -67 58 -73 -11
-8 -44 41 -53 45 -70 35 -21 -14 -26 -3 -7 16 10 10 -7 32 -80 104 l-92 92
-40 -39 c-22 -21 -40 -34 -40 -29 0 6 14 23 30 39 17 16 30 33 30 39 0 14
-162 176 -175 176 -6 0 -26 -16 -45 -35 -19 -19 -38 -35 -44 -35 -6 0 10 20
34 45 l45 45 -92 92 -92 92 -31 -29 c-16 -16 -32 -26 -35 -23 -3 2 6 15 20 28
14 13 25 28 25 34 0 6 -43 54 -95 106 -94 94 -106 110 -83 110 15 0 178 160
178 175 0 6 -40 50 -88 98 l-88 87 -39 -40 c-21 -22 -44 -40 -49 -40 -6 0 10
20 34 45 l44 45 -54 55 c-30 30 -52 57 -49 60 3 2 27 -18 54 -45 27 -28 54
-50 59 -50 14 0 176 161 176 175 0 5 -39 49 -87 97 l-88 88 -57 -57 c-32 -32
-58 -51 -58 -43 0 8 23 37 50 65 l50 51 -45 44 c-25 24 -45 49 -45 54 0 6 23
-12 50 -39 l50 -50 93 93 92 92 -90 90 -89 90 -33 -32 c-39 -38 -44 -23 -8 20
15 19 21 33 15 37 -5 3 -10 11 -10 17 0 6 6 5 16 -3 13 -11 28 0 107 79 l92
92 -48 48 c-26 26 -47 52 -47 57 0 5 24 -14 53 -43 l53 -52 92 93 92 92 -65
65 c-36 35 -65 69 -65 74 0 6 32 -21 70 -59 l70 -70 92 93 93 92 -75 75 c-41
41 -70 75 -64 75 5 0 41 -32 79 -70 l70 -70 92 92 93 93 -62 62 c-34 35 -58
63 -53 63 5 0 35 -26 67 -57 l58 -58 92 92 92 92 -29 31 c-16 16 -24 30 -19
30 6 0 21 -11 34 -25 l23 -25 63 60 c83 80 106 77 26 -3 -34 -34 -62 -67 -62
-72 0 -6 38 -49 85 -95 l85 -85 92 93 93 92 -80 80 c-44 44 -73 80 -65 80 8 0
47 -33 87 -72 l73 -73 90 90 c49 48 87 92 84 97 -3 4 7 8 21 8 14 0 24 -4 21
-8z m1282 -3134 c62 -15 125 -78 140 -139 32 -129 -69 -259 -201 -259 -116 0
-197 80 -197 194 0 113 82 200 203 215 5 1 29 -4 55 -11z m-2388 -113 c44 -28
46 -32 27 -60 -7 -11 -23 -36 -35 -56 l-22 -37 60 -35 59 -36 31 54 c17 30 35
57 41 60 10 7 89 -34 89 -46 0 -4 -43 -80 -96 -168 l-97 -161 -36 22 c-56 33
-56 33 -18 97 l36 60 -37 22 c-20 13 -47 29 -58 36 -21 13 -24 11 -59 -47 -20
-33 -38 -60 -41 -60 -12 0 -85 52 -82 59 7 18 191 321 194 321 3 0 22 -11 44
-25z m1906 -237 c-3 -51 -8 -146 -12 -211 -6 -116 -7 -118 -33 -129 -63 -25
-69 -21 -214 132 -75 80 -137 148 -137 151 0 3 24 13 53 22 l52 17 23 -27 24
-26 51 18 c81 28 86 32 89 71 3 33 7 38 48 54 25 10 49 18 53 19 5 1 6 -41 3
-91z m-1273 -35 c20 -4 27 -11 24 -22 -79 -283 -79 -274 -4 -287 l39 -6 -6
-41 c-4 -22 -9 -43 -11 -47 -5 -8 -310 72 -322 83 -3 4 -1 25 6 47 13 43 19
44 90 18 13 -5 27 -5 31 -1 4 4 22 64 40 133 17 69 34 129 37 133 3 5 15 6 27
3 11 -4 34 -9 49 -13z m611 -67 c40 -17 73 -57 85 -105 5 -20 11 -86 13 -148
l4 -112 -48 -6 c-27 -4 -51 -5 -53 -3 -3 2 -8 61 -13 131 -6 92 -13 132 -24
143 -21 22 -74 21 -99 -2 -19 -18 -21 -27 -17 -146 3 -141 5 -138 -68 -138
-31 0 -31 1 -38 61 -20 195 1 280 77 318 49 25 131 28 181 7z"/>
<path d="M1763 4785 c-38 -16 -53 -42 -53 -89 0 -45 40 -93 84 -102 98 -18
152 100 78 168 -35 33 -69 40 -109 23z"/>
<path d="M2915 4580 l-90 -90 93 -92 92 -93 85 85 c47 46 85 89 85 95 0 6 -39
50 -88 98 l-87 87 -90 -90z"/>
<path d="M2325 4380 l-90 -90 90 -90 90 -90 92 92 93 93 -87 87 c-48 49 -90
88 -93 88 -3 0 -46 -40 -95 -90z"/>
<path d="M2715 4380 l-90 -90 93 -93 92 -92 92 92 93 93 -90 90 c-49 49 -92
90 -95 90 -3 0 -46 -41 -95 -90z"/>
<path d="M3107 4382 l-87 -87 93 -93 92 -92 90 90 90 90 -90 90 c-49 50 -92
90 -95 90 -3 0 -45 -39 -93 -88z"/>
<path d="M3497 4382 l-87 -87 93 -93 92 -92 90 90 90 90 -90 90 c-49 50 -92
90 -95 90 -3 0 -45 -39 -93 -88z"/>
<path d="M2132 4187 l-92 -92 90 -90 90 -90 93 93 92 92 -90 90 -90 90 -93
-93z"/>
<path d="M2527 4192 c-48 -48 -87 -92 -87 -97 0 -6 38 -48 85 -95 47 -47 85
-91 85 -99 0 -7 -38 -53 -85 -100 -47 -48 -85 -92 -85 -97 0 -6 18 -27 40 -49
22 -21 37 -41 35 -44 -3 -2 -26 15 -50 39 l-45 45 -93 -93 -92 -92 97 -97 98
-96 -97 -99 -97 -98 47 -48 c26 -26 47 -52 47 -57 0 -5 -24 14 -53 43 l-53 52
-92 -93 -92 -92 89 -89 c60 -60 94 -87 105 -83 31 12 3 -23 -95 -120 l-99 -97
50 -51 c27 -28 50 -55 50 -60 0 -5 -25 15 -55 45 l-55 55 -93 -93 -92 -92 92
-92 c91 -91 92 -92 113 -73 11 10 20 13 20 8 0 -6 -7 -16 -15 -23 -11 -9 -13
-16 -5 -24 16 -16 12 -30 -6 -15 -13 11 -28 0 -107 -79 l-92 -92 92 -92 93
-93 70 70 c38 38 72 67 74 64 3 -3 -26 -36 -64 -74 l-70 -70 92 -92 93 -93 87
87 c49 48 88 92 88 98 0 6 -18 28 -40 50 -22 21 -37 41 -35 44 3 2 26 -15 50
-39 l45 -44 90 89 c71 71 89 94 84 110 -6 16 -4 18 8 8 12 -10 30 4 106 80
l92 93 -55 54 c-30 30 -55 59 -55 64 0 6 27 -16 60 -49 l60 -60 92 92 92 92
-29 31 c-16 16 -24 30 -18 30 5 0 18 -9 28 -20 23 -25 37 -25 60 0 10 11 23
20 28 20 6 0 -2 -14 -18 -30 l-29 -31 92 -92 92 -92 70 70 c38 38 72 67 74 64
3 -3 -24 -34 -59 -69 -36 -36 -65 -69 -65 -75 0 -14 162 -175 176 -175 7 0 17
7 24 15 7 8 17 15 23 15 6 0 0 -11 -13 -25 l-24 -26 92 -92 92 -92 45 45 c24
24 47 41 50 39 2 -3 -13 -23 -35 -44 -22 -22 -40 -44 -40 -50 0 -6 39 -50 88
-98 l87 -87 93 93 92 92 -65 65 c-35 35 -62 66 -59 69 2 3 34 -24 69 -59 l65
-65 92 93 93 92 -93 93 c-50 51 -92 97 -92 102 0 5 42 51 92 102 l93 93 -92
92 -93 93 -45 -45 c-25 -24 -45 -40 -45 -34 0 5 18 28 40 49 l40 39 -85 86
c-47 47 -85 90 -85 95 0 5 41 -31 90 -80 l90 -90 93 93 92 92 -93 92 -92 93
-95 -95 c-52 -52 -95 -90 -95 -85 0 5 41 50 90 100 l90 90 -93 93 -93 92 -39
-40 c-21 -22 -44 -40 -49 -40 -6 0 10 20 34 45 l44 45 -87 89 c-48 48 -87 97
-87 107 0 10 39 58 87 106 l88 88 -92 92 -93 93 -45 -45 c-25 -24 -45 -40 -45
-34 0 5 18 28 40 49 l40 39 -84 86 c-46 47 -86 94 -90 104 -5 16 12 39 84 111
l90 90 -93 93 -92 92 -90 -90 -89 -89 24 -26 c18 -19 20 -25 8 -25 -9 0 -21 7
-28 15 -7 9 -21 13 -31 10 -13 -4 -16 -1 -13 12 3 13 -22 45 -83 106 l-88 87
-89 -89 c-64 -64 -87 -94 -82 -106 4 -12 2 -15 -13 -10 -10 3 -24 -1 -31 -10
-7 -8 -17 -15 -23 -15 -5 0 -3 8 6 18 10 10 17 23 17 28 0 5 -39 49 -88 97
l-87 87 -88 -88z m716 -201 c93 -45 82 -18 392 -955 306 -922 305 -917 266
-1001 -61 -132 -220 -174 -341 -90 -52 36 -79 92 -149 313 l-62 192 -331 -2
-332 -3 -63 -204 c-34 -112 -74 -221 -87 -242 -50 -75 -160 -114 -250 -89 -57
16 -123 72 -147 124 -38 84 -38 85 247 988 146 464 276 861 289 884 29 50 88
92 146 104 24 5 118 8 209 7 149 -2 169 -5 213 -26z"/>
<path d="M3695 4190 l-90 -90 93 -93 92 -92 90 90 90 90 -93 93 -92 92 -90
-90z"/>
<path d="M1935 3990 l-90 -90 90 -90 90 -90 92 92 93 93 -87 87 c-48 49 -90
88 -93 88 -3 0 -46 -40 -95 -90z"/>
<path d="M2325 3990 l-90 -90 93 -93 92 -92 92 92 93 93 -90 90 c-49 49 -92
90 -95 90 -3 0 -46 -41 -95 -90z"/>
<path d="M3497 3992 l-87 -87 93 -93 92 -92 90 90 90 90 -90 90 c-49 50 -92
90 -95 90 -3 0 -45 -39 -93 -88z"/>
<path d="M3887 3992 l-87 -87 93 -93 92 -92 90 90 90 90 -90 90 c-49 50 -92
90 -95 90 -3 0 -45 -39 -93 -88z"/>
<path d="M1742 3797 l-92 -92 90 -90 90 -90 93 93 92 92 -90 90 -90 90 -93
-93z"/>
<path d="M2132 3797 l-92 -92 88 -88 c48 -48 92 -87 97 -87 13 0 175 162 175
175 0 6 -39 50 -88 98 l-87 87 -93 -93z"/>
<path d="M3695 3800 l-90 -90 93 -93 92 -92 90 90 90 90 -93 93 -92 92 -90
-90z"/>
<path d="M4085 3800 l-90 -90 93 -93 92 -92 90 90 90 90 -93 93 -92 92 -90
-90z"/>
<path d="M1545 3600 l-90 -90 90 -90 90 -90 92 92 93 93 -87 87 c-48 49 -90
88 -93 88 -3 0 -46 -40 -95 -90z"/>
<path d="M1935 3600 l-90 -90 93 -93 92 -92 92 92 93 93 -90 90 c-49 49 -92
90 -95 90 -3 0 -46 -41 -95 -90z"/>
<path d="M3887 3602 l-87 -87 93 -93 92 -92 90 90 90 90 -90 90 c-49 50 -92
90 -95 90 -3 0 -45 -39 -93 -88z"/>
<path d="M4277 3602 l-87 -87 93 -93 92 -92 90 90 90 90 -90 90 c-49 50 -92
90 -95 90 -3 0 -45 -39 -93 -88z"/>
<path d="M1742 3407 l-92 -92 88 -88 c48 -48 92 -87 97 -87 13 0 175 162 175
175 0 6 -39 50 -88 98 l-87 87 -93 -93z"/>
<path d="M2132 3407 l-92 -92 88 -88 c48 -48 92 -87 97 -87 13 0 175 162 175
175 0 6 -39 50 -88 98 l-87 87 -93 -93z"/>
<path d="M3697 3412 c-48 -48 -87 -92 -87 -97 0 -13 162 -175 175 -175 6 0 50
39 98 88 l87 87 -93 93 -92 92 -88 -88z"/>
<path d="M4085 3410 l-90 -90 93 -93 92 -92 90 90 90 90 -93 93 -92 92 -90
-90z"/>
<path d="M1545 3210 l-90 -90 93 -93 92 -92 92 92 93 93 -90 90 c-49 49 -92
90 -95 90 -3 0 -46 -41 -95 -90z"/>
<path d="M1935 3210 l-90 -90 93 -93 92 -92 92 92 93 93 -90 90 c-49 49 -92
90 -95 90 -3 0 -46 -41 -95 -90z"/>
<path d="M3885 3210 l-90 -90 93 -93 92 -92 92 92 93 93 -90 90 c-49 49 -92
90 -95 90 -3 0 -46 -41 -95 -90z"/>
<path d="M4277 3212 l-87 -87 93 -93 92 -92 90 90 90 90 -90 90 c-49 50 -92
90 -95 90 -3 0 -45 -39 -93 -88z"/>
<path d="M1742 3017 l-92 -92 88 -88 c48 -48 92 -87 97 -87 13 0 175 162 175
175 0 6 -39 50 -88 98 l-87 87 -93 -93z"/>
<path d="M4087 3022 c-48 -48 -87 -92 -87 -97 0 -13 162 -175 175 -175 6 0 50
39 98 88 l87 87 -93 93 -92 92 -88 -88z"/>
<path d="M1545 2820 l-90 -90 93 -93 92 -92 92 92 93 93 -90 90 c-49 49 -92
90 -95 90 -3 0 -46 -41 -95 -90z"/>
<path d="M1935 2820 l-90 -90 93 -93 92 -92 92 92 93 93 -90 90 c-49 49 -92
90 -95 90 -3 0 -46 -41 -95 -90z"/>
<path d="M4275 2820 l-90 -90 93 -93 92 -92 92 92 93 93 -90 90 c-49 49 -92
90 -95 90 -3 0 -46 -41 -95 -90z"/>
<path d="M1742 2627 l-92 -92 88 -88 c48 -48 92 -87 97 -87 13 0 175 162 175
175 0 6 -39 50 -88 98 l-87 87 -93 -93z"/>
<path d="M4087 2632 c-48 -48 -87 -92 -87 -97 0 -13 162 -175 175 -175 6 0 50
39 98 88 l87 87 -93 93 -92 92 -88 -88z"/>
<path d="M1545 2430 l-90 -90 93 -93 92 -92 92 92 93 93 -90 90 c-49 49 -92
90 -95 90 -3 0 -46 -41 -95 -90z"/>
<path d="M1742 2237 l-92 -92 88 -88 c48 -48 92 -87 97 -87 13 0 175 162 175
175 0 6 -39 50 -88 98 l-87 87 -93 -93z"/>
<path d="M2917 2242 c-48 -48 -87 -92 -87 -97 0 -6 39 -50 88 -98 l87 -87 93
93 92 92 -93 93 -92 92 -88 -88z"/>
<path d="M4087 2242 c-48 -48 -87 -92 -87 -97 0 -13 162 -175 175 -175 6 0 50
39 98 88 l87 87 -93 93 -92 92 -88 -88z"/>
<path d="M2715 2040 l-90 -90 93 -93 92 -92 92 92 93 93 -90 90 c-49 49 -92
90 -95 90 -3 0 -46 -41 -95 -90z"/>
<path d="M3105 2040 l-90 -90 93 -93 92 -92 92 92 93 93 -90 90 c-49 49 -92
90 -95 90 -3 0 -46 -41 -95 -90z"/>
<path d="M2517 1842 l-87 -87 93 -93 92 -92 88 88 c48 48 87 92 87 97 0 13
-162 175 -175 175 -6 0 -50 -39 -98 -88z"/>
<path d="M2907 1842 l-87 -87 93 -93 92 -92 93 93 92 92 -88 88 c-48 48 -92
87 -97 87 -6 0 -50 -39 -98 -88z"/>
<path d="M3302 1847 c-45 -45 -82 -87 -82 -92 0 -6 39 -50 88 -98 l87 -87 93
93 92 92 -88 88 c-48 48 -92 87 -97 87 -6 0 -47 -37 -93 -83z"/>
<path d="M2715 1650 l-90 -90 93 -93 92 -92 92 92 93 93 -90 90 c-49 49 -92
90 -95 90 -3 0 -46 -41 -95 -90z"/>
<path d="M3105 1650 l-90 -90 93 -93 92 -92 92 92 93 93 -90 90 c-49 49 -92
90 -95 90 -3 0 -46 -41 -95 -90z"/>
<path d="M4179 1431 c-42 -42 -40 -92 5 -137 45 -45 95 -47 137 -5 42 42 40
92 -5 137 -45 45 -95 47 -137 5z"/>
</g>
</svg>
